<svg xmlns="http://www.w3.org/2000/svg" width="1200" height="300" viewBox="0 0 1200 300" role="img" aria-labelledby="title desc">
  <title id="title">firmdrama - RoomReserve</title>
  <desc id="desc">A navy and gold title banner for the fictional Alder &amp; Vale API security lab.</desc>
  <defs>
    <linearGradient id="bg" x2="1" y2="1"><stop stop-color="#102333"/><stop offset="1" stop-color="#07121e"/></linearGradient>
    <pattern id="grid" width="40" height="40" patternUnits="userSpaceOnUse"><path d="M 40 0 L 0 0 0 40" fill="none" stroke="#c8a86a" stroke-opacity=".07"/></pattern>
  </defs>
  <rect width="1200" height="300" rx="18" fill="url(#bg)"/>
  <rect width="1200" height="300" rx="18" fill="url(#grid)"/>
  <rect x="22" y="22" width="1156" height="256" rx="8" fill="none" stroke="#c8a86a" stroke-opacity=".38"/>
  <path d="M62 73H106M62 73V117M1138 227H1094M1138 227V183" fill="none" stroke="#c8a86a" stroke-width="2"/>
  <text x="78" y="87" fill="#c8a86a" font-family="Arial, sans-serif" font-size="14" letter-spacing="4">ALDER &amp; VALE / ROOMRESERVE</text>
  <text x="73" y="167" fill="#f4f1e9" font-family="Georgia, serif" font-size="68" letter-spacing="1">firmdrama</text>
  <text x="78" y="204" fill="#b9c8d2" font-family="Arial, sans-serif" font-size="19">Every meeting has a story. Follow the API.</text>
  <text x="78" y="245" fill="#c8a86a" font-family="Arial, sans-serif" font-size="12" letter-spacing="3">API SECURITY LAB  /  FICTIONAL DATA  /  RESETTABLE BY DESIGN</text>
  <g transform="translate(940 145)" fill="none" stroke="#c8a86a">
    <circle r="79" stroke-opacity=".3"/><circle r="68" stroke-opacity=".6"/>
    <path d="M-37 -30H37M0 -48V43M-25 44H25M-31 -29L-47 5H-15Z M31 -29L15 5H47Z" stroke-width="2"/>
    <path d="M-51 5Q-31 26-11 5M11 5Q31 26 51 5" stroke-width="2"/>
    <circle cy="-49" r="4" fill="#c8a86a"/>
  </g>
</svg>
